<?xml version="1.0" encoding="UTF-8" standalone="no"?>
<!-- Generator: Adobe Illustrator 21.0.0, SVG Export Plug-In . SVG Version: 6.00 Build 0)  -->

<svg
   xmlns:dc="http://purl.org/dc/elements/1.1/"
   xmlns:cc="http://creativecommons.org/ns#"
   xmlns:rdf="http://www.w3.org/1999/02/22-rdf-syntax-ns#"
   xmlns:svg="http://www.w3.org/2000/svg"
   xmlns="http://www.w3.org/2000/svg"
   xmlns:sodipodi="http://sodipodi.sourceforge.net/DTD/sodipodi-0.dtd"
   xmlns:inkscape="http://www.inkscape.org/namespaces/inkscape"
   version="1.1"
   id="Layer_1"
   x="0px"
   y="0px"
   viewBox="0 0 98.624 98.624"
   style="enable-background:new 0 0 98.624 98.624;"
   xml:space="preserve"
   sodipodi:docname="Tilda_Icons_26sn_facebook.svg"
   inkscape:version="0.92.1 r15371"><metadata
     id="metadata15"><rdf:RDF><cc:Work
         rdf:about=""><dc:format>image/svg+xml</dc:format><dc:type
           rdf:resource="http://purl.org/dc/dcmitype/StillImage" /><dc:title></dc:title></cc:Work></rdf:RDF></metadata><defs
     id="defs13" /><sodipodi:namedview
     pagecolor="#ffffff"
     bordercolor="#666666"
     borderopacity="1"
     objecttolerance="10"
     gridtolerance="10"
     guidetolerance="10"
     inkscape:pageopacity="0"
     inkscape:pageshadow="2"
     inkscape:window-width="1920"
     inkscape:window-height="1027"
     id="namedview11"
     showgrid="false"
     inkscape:zoom="2.3929267"
     inkscape:cx="49.312"
     inkscape:cy="49.312"
     inkscape:window-x="-8"
     inkscape:window-y="-8"
     inkscape:window-maximized="1"
     inkscape:current-layer="g8" /><g
     id="g8"><path
       id="path4586"
       d="M 49.312,-1.0918058e-8 C 22.078,-1.0918058e-8 4.8113496e-7,22.078 4.8113496e-7,49.312 4.8113496e-7,76.546 22.078,98.624 49.312,98.624 76.545998,98.624 98.623998,76.546 98.623998,49.312 98.623998,22.078 76.545998,-1.0918058e-8 49.312,-1.0918058e-8 Z M 63.8,28.265 c -2.344,0 -4.703,0 -7.046,0 -1.483,-0.096 -3.013,1.036 -3.284,2.519 -0.032,2.567 -0.016,5.133 -0.016,7.7 3.443,0.016 6.887,0 10.331,0.016 -0.255,3.714 -0.717,7.413 -1.259,11.08 -3.045,0.032 -6.09,0 -9.135,0.016 -0.032,10.952 0.016,21.888 -0.016,32.841 -4.528,0.016 -9.039,-0.016 -13.567,0.016 -0.08,-10.952 0,-21.904 -0.048,-32.857 -2.2,-0.016 -4.416,0.016 -6.616,-0.016 0.016,-3.683 0,-7.365 0,-11.032 2.2,-0.032 4.416,0 6.616,-0.016 0.064,-3.571 -0.064,-7.158 0.064,-10.729 0.239,-2.854 1.307,-5.707 3.428,-7.668 2.567,-2.439 6.201,-3.268 9.645,-3.364 3.635,-0.032 7.27,-0.016 10.904,-0.016 0.015,3.842 0.015,7.668 -0.001,11.51 z"
       inkscape:connector-curvature="0"
       style="fill:#2d2b2b;fill-opacity:1" /></g></svg>